<svg version="1.1" id="Layer_1" xmlns="http://www.w3.org/2000/svg" xmlns:xlink="http://www.w3.org/1999/xlink" x="0px" y="0px"
	 width="100%" viewBox="0 0 1200 1200" enable-background="new 0 0 1200 1200" xml:space="preserve">
<path fill="#FD4935" opacity="1.000000" stroke="none" 
	d="
M796.000000,1201.000000 
	C530.666687,1201.000000 265.833344,1201.000000 1.000000,1201.000000 
	C1.000000,801.000000 1.000000,401.000000 1.000000,1.000000 
	C401.000000,1.000000 801.000000,1.000000 1201.000000,1.000000 
	C1201.000000,401.000000 1201.000000,801.000000 1201.000000,1201.000000 
	C1066.166626,1201.000000 931.333313,1201.000000 796.000000,1201.000000 
M492.987823,797.465576 
	C491.946747,811.079346 490.966858,824.698181 489.824097,838.303406 
	C489.516541,841.965210 490.754578,843.482666 494.513000,843.389465 
	C499.170349,843.273987 503.837463,843.647339 508.500458,843.650208 
	C549.156799,843.675293 589.813110,843.665771 630.469421,843.660889 
	C632.134949,843.660645 634.006897,844.067627 635.408936,843.444214 
	C636.857666,842.799988 638.776062,841.216003 638.900879,839.893188 
	C640.461487,823.362488 641.755493,806.806152 643.073730,790.252930 
	C645.162170,764.026428 647.197693,737.795837 649.291687,711.569763 
	C651.491699,684.016418 653.844666,656.474731 655.896912,628.910461 
	C656.592957,619.561462 656.296875,621.072998 664.461304,621.013550 
	C712.602905,620.662964 760.751892,620.741943 808.883911,619.873413 
	C834.483704,619.411438 859.554138,614.578979 883.696960,605.789978 
	C928.759216,589.385376 962.581970,560.583130 981.279602,515.702148 
	C993.822754,485.594269 997.532898,453.996124 995.030823,421.661011 
	C991.381226,374.495941 970.733765,336.634583 931.695435,309.531616 
	C896.462219,285.070404 856.435059,274.625092 814.229797,274.240814 
	C722.760437,273.407959 631.279053,273.907837 539.802551,273.863525 
	C539.136108,273.863220 538.466797,273.917084 537.803650,273.873260 
	C534.999878,273.687988 534.141602,275.114410 533.940063,277.770111 
	C532.365784,298.524719 530.646484,319.268219 529.016357,340.018677 
	C526.877563,367.243195 524.797974,394.472382 522.658508,421.696869 
	C520.453796,449.750610 518.213989,477.801666 515.978149,505.852966 
	C514.112793,529.256714 512.277710,552.663086 510.342651,576.061157 
	C508.628540,596.787537 506.646576,617.492554 505.050507,638.227661 
	C502.816284,667.252991 500.906067,696.303162 498.714722,725.331909 
	C496.922394,749.075134 494.921478,772.802673 492.987823,797.465576 
M273.147308,369.710968 
	C271.200470,394.948120 269.308655,420.189667 267.287292,445.420868 
	C265.960693,461.980011 264.294983,478.512787 263.050140,495.077576 
	C260.816620,524.797180 258.865479,554.537903 256.646851,584.258667 
	C254.541183,612.466431 252.221878,640.658142 250.037476,668.860107 
	C247.889801,696.587769 245.821320,724.321594 243.667114,752.048767 
	C241.500061,779.941406 239.226151,807.825806 237.097107,835.721313 
	C236.524750,843.220581 236.688629,843.247498 244.060791,843.248230 
	C289.052246,843.252930 334.043671,843.251099 379.035126,843.248169 
	C380.367859,843.248108 381.829224,843.546204 382.996674,843.097107 
	C384.134155,842.659485 385.553467,841.590393 385.825806,840.534668 
	C386.523956,837.828308 386.767883,834.984375 386.992615,832.179382 
	C388.691162,810.979370 390.341553,789.775513 392.006561,768.572815 
	C395.040436,729.937134 398.105835,691.303833 401.086517,652.664062 
	C401.880188,642.375549 402.258881,632.054321 403.100525,621.770386 
	C404.633942,603.032532 406.465210,584.319092 408.000824,565.581421 
	C410.204376,538.693848 412.244324,511.792877 414.372345,484.899109 
	C416.905670,452.883362 419.518372,420.873779 421.976746,388.852325 
	C423.174591,373.250122 423.928040,357.613068 425.190613,342.016724 
	C426.920715,320.645111 428.913818,299.294495 430.873535,277.942169 
	C431.164459,274.772278 429.843994,273.806976 426.894867,273.912811 
	C423.067322,274.050171 419.230896,273.937714 415.398315,273.937683 
	C372.406494,273.937378 329.414429,274.001740 286.423187,273.844025 
	C281.910095,273.827484 280.137848,275.207550 280.063568,279.694580 
	C279.975525,285.014984 279.406128,290.329437 278.988983,295.642029 
	C277.074554,320.022919 275.140381,344.402252 273.147308,369.710968 
z"/>
<path fill="#FDC83E" opacity="1.000000" stroke="none" 
	d="
M493.000427,797.001343 
	C494.921478,772.802673 496.922394,749.075134 498.714722,725.331909 
	C500.906067,696.303162 502.816284,667.252991 505.050507,638.227661 
	C506.646576,617.492554 508.628540,596.787537 510.342651,576.061157 
	C512.277710,552.663086 514.112793,529.256714 515.978149,505.852966 
	C518.213989,477.801666 520.453796,449.750610 522.658508,421.696869 
	C524.797974,394.472382 526.877563,367.243195 529.016357,340.018677 
	C530.646484,319.268219 532.365784,298.524719 533.940063,277.770111 
	C534.141602,275.114410 534.999878,273.687988 537.803650,273.873260 
	C538.466797,273.917084 539.136108,273.863220 539.802551,273.863525 
	C631.279053,273.907837 722.760437,273.407959 814.229797,274.240814 
	C856.435059,274.625092 896.462219,285.070404 931.695435,309.531616 
	C970.733765,336.634583 991.381226,374.495941 995.030823,421.661011 
	C997.532898,453.996124 993.822754,485.594269 981.279602,515.702148 
	C962.581970,560.583130 928.759216,589.385376 883.696960,605.789978 
	C859.554138,614.578979 834.483704,619.411438 808.883911,619.873413 
	C760.751892,620.741943 712.602905,620.662964 664.461304,621.013550 
	C656.296875,621.072998 656.592957,619.561462 655.896912,628.910461 
	C653.844666,656.474731 651.491699,684.016418 649.291687,711.569763 
	C647.197693,737.795837 645.162170,764.026428 643.073730,790.252930 
	C641.755493,806.806152 640.461487,823.362488 638.900879,839.893188 
	C638.776062,841.216003 636.857666,842.799988 635.408936,843.444214 
	C634.006897,844.067627 632.134949,843.660645 630.469421,843.660889 
	C589.813110,843.665771 549.156799,843.675293 508.500458,843.650208 
	C503.837463,843.647339 499.170349,843.273987 494.513000,843.389465 
	C490.754578,843.482666 489.516541,841.965210 489.824097,838.303406 
	C490.966858,824.698181 491.946747,811.079346 493.000427,797.001343 
M666.794556,508.104309 
	C668.540466,508.402802 670.285950,508.959015 672.032288,508.961670 
	C705.014282,509.012024 737.999451,509.248871 770.976746,508.851379 
	C781.737549,508.721649 792.740540,508.047302 803.180603,505.651642 
	C840.689819,497.044647 859.082703,474.615845 854.781799,433.941803 
	C852.582581,413.143311 839.936096,399.996735 820.569946,393.052185 
	C807.205505,388.259766 793.241272,387.259949 779.229187,387.191284 
	C747.247375,387.034515 715.264160,387.137634 683.281555,387.138916 
	C675.798645,387.139221 675.760437,387.143158 675.171936,394.783508 
	C672.282715,432.292877 669.415527,469.803925 666.794556,508.104309 
z"/>
<path fill="#FDC83E" opacity="1.000000" stroke="none" 
	d="
M273.180298,369.246582 
	C275.140381,344.402252 277.074554,320.022919 278.988983,295.642029 
	C279.406128,290.329437 279.975525,285.014984 280.063568,279.694580 
	C280.137848,275.207550 281.910095,273.827484 286.423187,273.844025 
	C329.414429,274.001740 372.406494,273.937378 415.398315,273.937683 
	C419.230896,273.937714 423.067322,274.050171 426.894867,273.912811 
	C429.843994,273.806976 431.164459,274.772278 430.873535,277.942169 
	C428.913818,299.294495 426.920715,320.645111 425.190613,342.016724 
	C423.928040,357.613068 423.174591,373.250122 421.976746,388.852325 
	C419.518372,420.873779 416.905670,452.883362 414.372345,484.899109 
	C412.244324,511.792877 410.204376,538.693848 408.000824,565.581421 
	C406.465210,584.319092 404.633942,603.032532 403.100525,621.770386 
	C402.258881,632.054321 401.880188,642.375549 401.086517,652.664062 
	C398.105835,691.303833 395.040436,729.937134 392.006561,768.572815 
	C390.341553,789.775513 388.691162,810.979370 386.992615,832.179382 
	C386.767883,834.984375 386.523956,837.828308 385.825806,840.534668 
	C385.553467,841.590393 384.134155,842.659485 382.996674,843.097107 
	C381.829224,843.546204 380.367859,843.248108 379.035126,843.248169 
	C334.043671,843.251099 289.052246,843.252930 244.060791,843.248230 
	C236.688629,843.247498 236.524750,843.220581 237.097107,835.721313 
	C239.226151,807.825806 241.500061,779.941406 243.667114,752.048767 
	C245.821320,724.321594 247.889801,696.587769 250.037476,668.860107 
	C252.221878,640.658142 254.541183,612.466431 256.646851,584.258667 
	C258.865479,554.537903 260.816620,524.797180 263.050140,495.077576 
	C264.294983,478.512787 265.960693,461.980011 267.287292,445.420868 
	C269.308655,420.189667 271.200470,394.948120 273.180298,369.246582 
z"/>
<path fill="#FD4935" opacity="1.000000" stroke="none" 
	d="
M666.667603,507.709351 
	C669.415527,469.803925 672.282715,432.292877 675.171936,394.783508 
	C675.760437,387.143158 675.798645,387.139221 683.281555,387.138916 
	C715.264160,387.137634 747.247375,387.034515 779.229187,387.191284 
	C793.241272,387.259949 807.205505,388.259766 820.569946,393.052185 
	C839.936096,399.996735 852.582581,413.143311 854.781799,433.941803 
	C859.082703,474.615845 840.689819,497.044647 803.180603,505.651642 
	C792.740540,508.047302 781.737549,508.721649 770.976746,508.851379 
	C737.999451,509.248871 705.014282,509.012024 672.032288,508.961670 
	C670.285950,508.959015 668.540466,508.402802 666.667603,507.709351 
z"/>
</svg>