<svg width="100%" height="100%" viewBox="0 0 800 800" preserveAspectRatio="xMidYMid slice" fill="none"
  xmlns="http://www.w3.org/2000/svg" id="complex-network-hero">
  <defs>
    <linearGradient id="cyber-grad" x1="0%" y1="0%" x2="100%" y2="100%">
      <stop offset="0%" stop-color="#0f172a" />
      <stop offset="100%" stop-color="#020617" />
    </linearGradient>

    <linearGradient id="stream-grad" x1="0%" y1="0%" x2="100%" y2="0%">
      <stop offset="0%" stop-color="#06b6d4" stop-opacity="0" />
      <stop offset="50%" stop-color="#06b6d4" stop-opacity="1" />
      <stop offset="100%" stop-color="#d946ef" stop-opacity="1" />
    </linearGradient>

    <filter id="neon-glow" x="-50%" y="-50%" width="200%" height="200%">
      <feGaussianBlur stdDeviation="3" result="coloredBlur" />
      <feMerge>
        <feMergeNode in="coloredBlur" />
        <feMergeNode in="SourceGraphic" />
      </feMerge>
    </filter>

    <symbol id="hex-node" viewBox="0 0 100 100">
      <polygon points="50,5 95,27.5 95,72.5 50,95 5,72.5 5,27.5" fill="#0f172a" stroke="#64748b" stroke-width="2" />
      <circle cx="50" cy="50" r="15" fill="#0f172a" stroke="#06b6d4" stroke-width="2" />
    </symbol>


  </defs>

  <g>
    <!-- Top Section -->
    <path d="M100 100 L300 100 L350 150 L450 150" class="circuit-path" />
    <path d="M700 100 L500 100 L450 150" class="circuit-path" />

    <!-- Middle Section -->
    <path d="M450 150 L450 350" class="circuit-path" />
    <path d="M350 150 L350 350" class="circuit-path" />
    <!-- Core Connector -->
    <path d="M350 350 L450 350" class="circuit-path" />

    <path d="M350 350 L250 450 L250 650" class="circuit-path" />
    <path d="M450 350 L550 450 L550 650" class="circuit-path" />

    <!-- Bottom Section -->
    <!-- Redrawn to meet at center -->
    <path d="M250 650 L325 750 L475 750 L550 650" class="circuit-path" />

    <!-- Side Sections -->
    <!-- Left Flank -->
    <path d="M100 100 L100 650" class="circuit-path" />
    <path d="M100 400 L200 400 L250 450" class="circuit-path" />
    <path d="M100 650 L100 650 L250 650" class="circuit-path" />

    <!-- Right Flank -->
    <path d="M700 100 L700 650" class="circuit-path" />
    <path d="M700 400 L600 400 L550 450" class="circuit-path" />
    <path d="M700 650 L700 650 L550 650" class="circuit-path" />


    <!-- Active Streams -->

    <!-- Top Left Stream -->
    <path d="M100 400 L100 100 L300 100 L350 150 L450 150" class="active-stream" id="stream-1" />

    <!-- Top Right Stream -->
    <path d="M700 400 L700 100 L500 100 L450 150" class="active-stream" id="stream-2" />

    <!-- Middle Bottom Streams -->
    <path d="M400 350 L450 350 L550 450 L550 650" class="active-stream" id="stream-4" />
    <path d="M400 350 L350 350 L250 450 L250 650" class="active-stream" id="stream-13" />

    <!-- Bottom Stream -->
    <path d="M250 650 L325 750 L475 750 L550 650" class="active-stream" id="stream-5" />

    <!-- Middle Flank Streams -->
    <path d="M100 400 L200 400 L250 450" class="active-stream" id="stream-8" style="animation-duration: 3s;" />
    <path d="M700 400 L600 400 L550 450" class="active-stream" id="stream-9" style="animation-duration: 3s;" />

    <!-- Bottom Flank Streams -->
    <path d="M100 550 L100 650 L250 650" class="active-stream" id="stream-17" style="animation-duration: 3s;" />
    <path d="M700 600 L700 650 L550 650" class="active-stream" id="stream-18" style="animation-duration: 3s;" />


    <!-- Nodes -->
    <!-- Top -->
    <g class="node-pulse" id="node-1">
      <use href="#hex-node" x="280" y="80" width="40" height="40" />
    </g>
    <g class="node-pulse" id="node-2">
      <use href="#hex-node" x="480" y="80" width="40" height="40" />
    </g>

    <!-- Upper Mid -->
    <g class="node-pulse" id="node-3">
      <use href="#hex-node" x="330" y="130" width="40" height="40" />
    </g>
    <g class="node-pulse" id="node-4">
      <use href="#hex-node" x="430" y="130" width="40" height="40" />
    </g>

    <!-- Center Core (Centered at 400, 350) -->
    <g class="node-pulse" id="node-core-1">
      <use href="#hex-node" x="370" y="320" width="60" height="60" />
    </g>

    <!-- Lower Mid -->
    <g class="node-pulse" id="node-5">
      <use href="#hex-node" x="230" y="430" width="40" height="40" />
    </g>
    <g class="node-pulse" id="node-6">
      <use href="#hex-node" x="530" y="430" width="40" height="40" />
    </g>

    <!-- Bottom -->
    <g class="node-pulse" id="node-7">
      <use href="#hex-node" x="230" y="630" width="40" height="40" />
    </g>
    <g class="node-pulse" id="node-8">
      <use href="#hex-node" x="530" y="630" width="40" height="40" />
    </g>

    <!-- Bottom Center (Centered at 400, 750) -->
    <g class="node-pulse" id="node-9">
      <use href="#hex-node" x="380" y="730" width="40" height="40" />
    </g>

    <!-- Side Nodes -->
    <g class="node-pulse" id="node-left">
      <use href="#hex-node" x="80" y="380" width="40" height="40" />
    </g>
    <g class="node-pulse" id="node-right">
      <use href="#hex-node" x="680" y="380" width="40" height="40" />
    </g>

    <!-- Corner Nodes -->
    <g class="node-pulse" id="node-tl">
      <use href="#hex-node" x="80" y="80" width="40" height="40" />
    </g>
    <g class="node-pulse" id="node-tr">
      <use href="#hex-node" x="680" y="80" width="40" height="40" />
    </g>
    <g class="node-pulse" id="node-bl">
      <use href="#hex-node" x="80" y="630" width="40" height="40" />
    </g>
    <g class="node-pulse" id="node-br">
      <use href="#hex-node" x="680" y="630" width="40" height="40" />
    </g>


    <circle cx="400" cy="350" r="4" fill="#d946ef" opacity="0.6" />
  </g>
</svg>