<svg version="1.1" id="Layer_1" xmlns="http://www.w3.org/2000/svg" xmlns:xlink="http://www.w3.org/1999/xlink" x="0px" y="0px"
	 width="100%" viewBox="0 0 244 244" enable-background="new 0 0 244 244" xml:space="preserve">
<path fill="#000000" opacity="1.000000" stroke="none" 
	d="
M113.000000,245.000000 
	C75.333336,245.000000 38.166672,245.000000 1.000005,245.000000 
	C1.000003,163.666672 1.000003,82.333351 1.000002,1.000016 
	C82.333321,1.000011 163.666641,1.000011 244.999969,1.000005 
	C244.999985,82.333321 244.999985,163.666641 245.000000,244.999969 
	C201.166672,245.000000 157.333328,245.000000 113.000000,245.000000 
M33.054077,143.652115 
	C29.725601,149.584213 26.484531,155.567596 23.042944,161.433334 
	C19.889629,166.807709 20.374763,172.456696 24.655823,174.874481 
	C30.675020,178.273926 35.751396,176.445297 39.001591,170.920990 
	C40.069317,169.106186 41.041996,167.235748 42.092358,165.410416 
	C50.336796,151.083008 58.666702,136.803986 66.795708,122.411446 
	C69.455521,117.702217 67.845413,111.658798 63.789074,109.316711 
	C58.989483,106.545471 54.319756,107.816360 50.999432,113.289230 
	C45.031628,123.125938 39.305931,133.109528 33.054077,143.652115 
M137.060593,165.581268 
	C138.034073,163.894562 139.011566,162.210159 139.980362,160.520767 
	C147.309265,147.740662 154.731995,135.012894 161.913605,122.150536 
	C164.509521,117.501221 162.784576,111.127998 158.511765,109.281738 
	C152.673096,106.758888 149.217255,107.730560 145.873886,113.494247 
	C142.542160,119.237877 139.110626,124.924294 135.827774,130.695465 
	C129.504456,141.811691 123.272652,152.979919 116.966270,164.105820 
	C114.534172,168.396591 116.719337,171.844955 119.426422,174.616165 
	C122.233322,177.489532 128.241150,177.323151 130.853210,174.549347 
	C133.176712,172.081955 134.939056,169.086136 137.060593,165.581268 
M95.001595,105.498100 
	C91.302834,112.137917 87.452103,118.699043 83.958687,125.445198 
	C81.626274,129.949326 83.421585,134.492584 88.012466,137.011505 
	C92.209305,139.314224 96.772835,138.303329 99.336739,134.161469 
	C104.616226,125.632690 109.841171,117.065437 114.867393,108.385956 
	C119.728462,99.991676 124.424179,91.496208 128.971329,82.927795 
	C131.367249,78.413101 129.741806,73.755791 125.340164,71.120193 
	C121.153061,68.613052 116.194633,69.622124 113.608551,73.947594 
	C107.468353,84.217674 101.541901,94.615547 95.001595,105.498100 
M193.059998,100.587326 
	C188.513977,108.413635 183.875854,116.188370 179.454895,124.084694 
	C176.592865,129.196625 177.898285,133.976868 182.584534,136.847153 
	C187.018463,139.562912 192.232147,138.350708 195.125168,133.468765 
	C204.775452,117.184135 214.343292,100.849121 223.759964,84.428612 
	C226.311539,79.979248 225.364594,74.995605 222.215302,72.640427 
	C216.461044,68.337143 211.015549,69.171036 207.281769,75.442177 
	C202.484253,83.499893 198.085251,91.794884 193.059998,100.587326 
z"/>
<path fill="#C0FD11" opacity="1.000000" stroke="none" 
	d="
M33.266579,143.341919 
	C39.305931,133.109528 45.031628,123.125938 50.999432,113.289230 
	C54.319756,107.816360 58.989483,106.545471 63.789074,109.316711 
	C67.845413,111.658798 69.455521,117.702217 66.795708,122.411446 
	C58.666702,136.803986 50.336796,151.083008 42.092358,165.410416 
	C41.041996,167.235748 40.069317,169.106186 39.001591,170.920990 
	C35.751396,176.445297 30.675020,178.273926 24.655823,174.874481 
	C20.374763,172.456696 19.889629,166.807709 23.042944,161.433334 
	C26.484531,155.567596 29.725601,149.584213 33.266579,143.341919 
z"/>
<path fill="#C0FD11" opacity="1.000000" stroke="none" 
	d="
M137.004837,165.952408 
	C134.939056,169.086136 133.176712,172.081955 130.853210,174.549347 
	C128.241150,177.323151 122.233322,177.489532 119.426422,174.616165 
	C116.719337,171.844955 114.534172,168.396591 116.966270,164.105820 
	C123.272652,152.979919 129.504456,141.811691 135.827774,130.695465 
	C139.110626,124.924294 142.542160,119.237877 145.873886,113.494247 
	C149.217255,107.730560 152.673096,106.758888 158.511765,109.281738 
	C162.784576,111.127998 164.509521,117.501221 161.913605,122.150536 
	C154.731995,135.012894 147.309265,147.740662 139.980362,160.520767 
	C139.011566,162.210159 138.034073,163.894562 137.004837,165.952408 
z"/>
<path fill="#C0FD11" opacity="1.000000" stroke="none" 
	d="
M95.265335,105.229935 
	C101.541901,94.615547 107.468353,84.217674 113.608551,73.947594 
	C116.194633,69.622124 121.153061,68.613052 125.340164,71.120193 
	C129.741806,73.755791 131.367249,78.413101 128.971329,82.927795 
	C124.424179,91.496208 119.728462,99.991676 114.867393,108.385956 
	C109.841171,117.065437 104.616226,125.632690 99.336739,134.161469 
	C96.772835,138.303329 92.209305,139.314224 88.012466,137.011505 
	C83.421585,134.492584 81.626274,129.949326 83.958687,125.445198 
	C87.452103,118.699043 91.302834,112.137917 95.265335,105.229935 
z"/>
<path fill="#C0FD11" opacity="1.000000" stroke="none" 
	d="
M193.287292,100.287491 
	C198.085251,91.794884 202.484253,83.499893 207.281769,75.442177 
	C211.015549,69.171036 216.461044,68.337143 222.215302,72.640427 
	C225.364594,74.995605 226.311539,79.979248 223.759964,84.428612 
	C214.343292,100.849121 204.775452,117.184135 195.125168,133.468765 
	C192.232147,138.350708 187.018463,139.562912 182.584534,136.847153 
	C177.898285,133.976868 176.592865,129.196625 179.454895,124.084694 
	C183.875854,116.188370 188.513977,108.413635 193.287292,100.287491 
z"/>
</svg>