<?xml version="1.0" encoding="UTF-8"?>
<svg id="logosandtypes_com" data-name="logosandtypes com" xmlns="http://www.w3.org/2000/svg" xmlns:xlink="http://www.w3.org/1999/xlink" viewBox="0 0 150 150">
  <defs>
    <style>
      .cls-1 {
        fill: url(#linear-gradient);
        fill-rule: evenodd;
      }

      .cls-2 {
        fill: none;
      }
    </style>
    <linearGradient id="linear-gradient" x1="17.39" y1="39.71" x2="115.17" y2="123.27" gradientUnits="userSpaceOnUse">
      <stop offset="0" stop-color="#0c40ff"/>
      <stop offset="1" stop-color="#cf01ff"/>
    </linearGradient>
  </defs>
  <g id="Layer_3" data-name="Layer 3">
    <g id="Layer_3-2" data-name="Layer 3">
      <g id="Layer_2" data-name="Layer 2">
        <path id="Layer_3-3" data-name="Layer 3" class="cls-2" d="M0,0H150V150H0V0Z"/>
      </g>
    </g>
  </g>
  <path class="cls-1" d="M76.9,137.11H20.22c-1.37,0-2.68-.55-3.64-1.51-.97-.96-1.51-2.27-1.51-3.64V18.6c0-1.37,.54-2.68,1.51-3.64,.97-.96,2.28-1.51,3.64-1.51h56.68c34.12,0,61.83,27.7,61.83,61.83s-27.7,61.83-61.83,61.83Zm0-108.2c25.59,0,46.37,20.78,46.37,46.37s-20.78,46.37-46.37,46.37H35.68c-2.85,0-5.15-2.3-5.15-5.15v-41.22c0-25.59,20.78-46.37,46.37-46.37Zm0,77.28c17.06,0,30.91-13.86,30.91-30.91s-13.85-30.91-30.91-30.91-30.91,13.86-30.91,30.91v25.76c0,2.85,2.31,5.15,5.15,5.15h25.76Zm0-46.37c8.53,0,15.46,6.92,15.46,15.46s-6.93,15.46-15.46,15.46h-12.01c-1.91,0-3.45-1.55-3.45-3.45v-12.01c0-8.54,6.93-15.46,15.46-15.46Z"/>
</svg>