<?xml version="1.0"?>
<svg width="280" height="274" xmlns="http://www.w3.org/2000/svg" xmlns:svg="http://www.w3.org/2000/svg">
 <!-- Created with SVG-edit - https://github.com/SVG-Edit/svgedit-->

 <g class="layer">
  <title>Layer 1</title>
  <defs>
   <linearGradient id="svg_12" x1="0" x2="0.96" y1="0.05" y2="1.02">
    <stop stop-color="#FCECC5"/>
    <stop offset="1" stop-color="#EEBD52"/>
   </linearGradient>
   <linearGradient id="svg_11" x1="-6.71" x2="1.16" y1="-0.09" y2="7.89">
    <stop stop-color="#FCECC5"/>
    <stop offset="1" stop-color="#EEBD52"/>
   </linearGradient>
   <linearGradient id="svg_10" x1="-0.55" x2="7.32" y1="-0.15" y2="7.83">
    <stop stop-color="#FCECC5"/>
    <stop offset="1" stop-color="#EEBD52"/>
   </linearGradient>
   <linearGradient id="svg_9" x1="-0.55" x2="7.32" y1="-6.25" y2="1.73">
    <stop stop-color="#FCECC5"/>
    <stop offset="1" stop-color="#EEBD52"/>
   </linearGradient>
   <linearGradient id="svg_8" x1="-6.71" x2="1.16" y1="-6.31" y2="1.67">
    <stop stop-color="#FCECC5"/>
    <stop offset="1" stop-color="#EEBD52"/>
   </linearGradient>
  </defs>
  <g id="svg_25" transform="translate(0 -1) translate(0 -11) translate(0 -0.05) translate(-30 0) translate(-150 -91) translate(-1620 0) matrix(14.5081 0 0 14.1946 1570.2 -72.2809)">
   <path clip-rule="evenodd" d="m28.02,17.82l-2.52,-5.46l-2.53,5.46c-0.03,0.08 -0.08,0.16 -0.12,0.23l-1.41,-1.41a0.94,0.94 0 1 0 -1.34,1.34l1.4,1.39l-0.16,0.08l-0.04,0.02l-5.46,2.53l5.46,2.53l0.19,0.09l-1.39,1.41a0.94,0.94 0 1 0 1.34,1.34l1.41,-1.41l0.12,0.24l2.53,5.46l2.52,-5.46l0.1,-0.19l1.36,1.37a0.94,0.94 0 1 0 1.34,-1.34l-1.38,-1.38l0.24,-0.12l5.46,-2.53l-5.46,-2.53l-0.23,-0.11l1.38,-1.38a0.94,0.94 0 1 0 -1.34,-1.34l-1.37,1.36a3.38,3.38 0 0 1 -0.09,-0.16l-0.02,-0.02zm-2.53,0.29l-0.34,0.72a5.82,5.82 0 0 1 -2.84,2.84l-0.72,0.34l0.72,0.34a5.82,5.82 0 0 1 2.84,2.84l0.34,0.72l0.33,-0.72a5.82,5.82 0 0 1 2.85,-2.84l0.72,-0.34l-0.72,-0.34a5.82,5.82 0 0 1 -2.85,-2.84l-0.33,-0.72z" fill="#fff" fill-rule="evenodd" id="svg_14"/>
   <path clip-rule="evenodd" d="m28.02,17.82l-2.52,-5.46l-2.53,5.46c-0.03,0.08 -0.08,0.16 -0.12,0.23l-1.41,-1.41a0.94,0.94 0 1 0 -1.34,1.34l1.4,1.39l-0.16,0.08l-0.04,0.02l-5.46,2.53l5.46,2.53l0.19,0.09l-1.39,1.41a0.94,0.94 0 1 0 1.34,1.34l1.41,-1.41l0.12,0.24l2.53,5.46l2.52,-5.46l0.1,-0.19l1.36,1.37a0.94,0.94 0 1 0 1.34,-1.34l-1.38,-1.38l0.24,-0.12l5.46,-2.53l-5.46,-2.53l-0.23,-0.11l1.38,-1.38a0.94,0.94 0 1 0 -1.34,-1.34l-1.37,1.36a3.38,3.38 0 0 1 -0.09,-0.16l-0.02,-0.02zm-2.53,0.29l-0.34,0.72a5.82,5.82 0 0 1 -2.84,2.84l-0.72,0.34l0.72,0.34a5.82,5.82 0 0 1 2.84,2.84l0.34,0.72l0.33,-0.72a5.82,5.82 0 0 1 2.85,-2.84l0.72,-0.34l-0.72,-0.34a5.82,5.82 0 0 1 -2.85,-2.84l-0.33,-0.72z" fill="url(#svg_12)" fill-rule="evenodd" id="svg_15"/>
   <path d="m33.66,15.14a0.94,0.94 0 0 0 -1.34,-1.34l-0.45,0.46a0.94,0.94 0 0 0 1.34,1.34l0.46,-0.45z" fill="#fff" id="svg_16"/>
   <path d="m33.66,15.14a0.94,0.94 0 0 0 -1.34,-1.34l-0.45,0.46a0.94,0.94 0 0 0 1.34,1.34l0.46,-0.45z" fill="url(#svg_11)" id="svg_17"/>
   <path d="m19.2,15.74c-0.36,0.37 -0.96,0.37 -1.34,0l-0.45,-0.45a0.94,0.94 0 0 1 1.34,-1.34l0.45,0.46c0.37,0.37 0.37,0.96 0,1.34l-0.01,0z" fill="#fff" id="svg_18"/>
   <path d="m19.2,15.74c-0.36,0.37 -0.96,0.37 -1.34,0l-0.45,-0.45a0.94,0.94 0 0 1 1.34,-1.34l0.45,0.46c0.37,0.37 0.37,0.96 0,1.34l-0.01,0z" fill="url(#svg_10)" id="svg_19"/>
   <path d="m19.2,28.26a0.94,0.94 0 0 0 -1.34,0l-0.45,0.45a0.94,0.94 0 0 0 1.34,1.34l0.45,-0.46c0.37,-0.37 0.37,-0.96 0,-1.34l-0.01,0z" fill="#fff" id="svg_20"/>
   <path d="m19.2,28.26a0.94,0.94 0 0 0 -1.34,0l-0.45,0.45a0.94,0.94 0 0 0 1.34,1.34l0.45,-0.46c0.37,-0.37 0.37,-0.96 0,-1.34l-0.01,0z" fill="url(#svg_9)" id="svg_21"/>
   <path d="m33.66,28.86a0.94,0.94 0 0 1 -1.34,1.34l-0.45,-0.46a0.94,0.94 0 0 1 1.34,-1.34l0.46,0.45z" fill="#fff" id="svg_22"/>
   <path d="m33.66,28.86a0.94,0.94 0 0 1 -1.34,1.34l-0.45,-0.46a0.94,0.94 0 0 1 1.34,-1.34l0.46,0.45z" fill="url(#svg_8)" id="svg_23"/>
  </g>
 </g>
</svg>